<?xml version="1.0" encoding="utf-8"?>
<!DOCTYPE score-partwise  PUBLIC "-//Recordare//DTD MusicXML 3.0 Partwise//EN" "http://www.musicxml.org/dtds/partwise.dtd">
<score-partwise version="3.0">
  <movement-title>Music21 Fragment</movement-title>
  <identification>
    <creator type="composer">Music21</creator>
    <encoding>
      <encoding-date>2021-03-09</encoding-date>
      <software>music21 v.6.7.1</software>
    </encoding>
  </identification>
  <defaults>
    <scaling>
      <millimeters>7</millimeters>
      <tenths>40</tenths>
    </scaling>
  </defaults>
  <part-list>
    <score-part id="P5a12356be2943baf7bbe60effd315f87">
      <part-name />
    </score-part>
  </part-list>
  <!--=========================== Part 1 ===========================-->
  <part id="P5a12356be2943baf7bbe60effd315f87">
    <!--========================= Measure 1 ==========================-->
    <measure number="1">
      <note>
        <pitch>
          <step>C</step>
          <alter>0</alter>
          <octave>6</octave>
        </pitch>
        <duration>10080</duration>
        <type>quarter</type>
      </note>
		<note>
			<pitch>
				<step>B</step>
				<alter>0</alter>
				<octave>5</octave>
			</pitch>
			<duration>5040</duration>
			<type>eighth</type>
		</note>
		<note>
			<pitch>
				<step>C</step>
				<alter>0</alter>
				<octave>6</octave>
			</pitch>
			<duration>2520</duration>
			<type>16th</type>
		</note>
		<note>
			<pitch>
				<step>G</step>
				<octave>6</octave>
			</pitch>
			<duration>2520</duration>
			<type>16th</type>
		</note>
		<note>
			<pitch>
				<step>G</step>
				<octave>6</octave>
			</pitch>
			<duration>15120</duration>
			<type>quarter</type>
		</note>
		<note>
			<pitch>
				<step>D</step>
				<octave>6</octave>
			</pitch>
			<duration>2520</duration>
			<type>16th</type>
		</note>
    </measure>
    <!--========================= Measure 2 ==========================-->
    <measure number="2">
		<note>
			<pitch>
				<step>D</step>
				<octave>6</octave>
			</pitch>
			<duration>40320</duration>
			<type>whole</type>
		</note>
    </measure>
    <!--========================= Measure 3 ==========================-->
    <measure number="3">
		<note>
			<pitch>
				<step>C</step>
				<alter>0</alter>
				<octave>6</octave>
			</pitch>
			<duration>2520</duration>
			<type>16th</type>
		</note>
		<note>
			<pitch>
				<step>B</step>
				<alter>0</alter>
				<octave>5</octave>
			</pitch>
			<duration>2520</duration>
			<type>16th</type>
		</note>
		<note>
			<pitch>
				<step>C</step>
				<alter>0</alter>
				<octave>6</octave>
			</pitch>
			<duration>2520</duration>
			<type>16th</type>
		</note>
		<note>
			<pitch>
				<step>E</step>
				<alter>0</alter>
				<octave>6</octave>
			</pitch>
			<duration>2520</duration>
			<type>16th</type>
		</note>
		<note>
			<pitch>
				<step>E</step>
				<alter>0</alter>
				<octave>6</octave>
			</pitch>
			<duration>7560</duration>
			<type>eighth</type>
		</note>
		<note>
			<pitch>
				<step>C</step>
				<alter>0</alter>
				<octave>6</octave>
			</pitch>
			<duration>2520</duration>
			<type>16th</type>
		</note>
		<note>
			<pitch>
				<step>G</step>
				<alter>0</alter>
				<octave>6</octave>
			</pitch>
			<duration>2520</duration>
			<type>16th</type>
		</note>
		<note>
			<pitch>
				<step>G</step>
				<octave>6</octave>
			</pitch>
			<duration>10080</duration>
			<type>quarter</type>
		</note>
		<note>
			<pitch>
				<step>F</step>
				<alter>0</alter>
				<octave>6</octave>
			</pitch>
			<duration>5040</duration>
			<type>eighth</type>
		</note>
		<note>
			<pitch>
				<step>E</step>
				<alter>0</alter>
				<octave>6</octave>
			</pitch>
			<duration>5040</duration>
			<type>eighth</type>
		</note>
    </measure>
    <!--========================= Measure 4 ==========================-->
    <measure number="4">
		<note>
			<pitch>
				<step>D</step>
				<octave>6</octave>
			</pitch>
			<duration>40320</duration>
			<type>whole</type>
		</note>
    </measure>
    <!--========================= Measure 5 ==========================-->
    <measure number="5">
		<note>
			<rest />
			<duration>10080</duration>
			<type>quarter</type>
			<lyric name="1" number="1">
				<syllabic>single</syllabic>
				<text>#</text>
			</lyric>
		</note>
		<note>
			<pitch>
				<step>A</step>
				<alter>0</alter>
				<octave>4</octave>
			</pitch>
			<duration>2520</duration>
			<type>16th</type>
			<lyric name="1" number="1">
				<syllabic>single</syllabic>
				<text>把</text>
			</lyric>
		</note>
		<note>
			<pitch>
				<step>B</step>
				<alter>0</alter>
				<octave>4</octave>
			</pitch>
			<duration>2520</duration>
			<type>16th</type>
			<lyric name="1" number="1">
				<syllabic>single</syllabic>
				<text>昨</text>
			</lyric>
		</note>
		<note>
			<pitch>
				<step>C</step>
				<alter>0</alter>
				<octave>5</octave>
			</pitch>
			<duration>5040</duration>
			<type>eighth</type>
			<lyric name="1" number="1">
				<syllabic>single</syllabic>
				<text>天</text>
			</lyric>
		</note>
		<note>
			<pitch>
				<step>C</step>
				<alter>0</alter>
				<octave>5</octave>
			</pitch>
			<duration>10080</duration>
			<type>quarter</type>
			<lyric name="1" number="1">
				<syllabic>single</syllabic>
				<text>都</text>
			</lyric>
		</note>
		<note>
			<pitch>
				<step>G</step>
				<alter>0</alter>
				<octave>4</octave>
			</pitch>
			<duration>2520</duration>
			<type>16th</type>
			<lyric name="1" number="1">
				<syllabic>single</syllabic>
				<text>作</text>
			</lyric>
		</note>
		<note>
			<pitch>
				<step>G</step>
				<alter>0</alter>
				<octave>4</octave>
			</pitch>
			<duration>2520</duration>
			<type>16th</type>
			<lyric name="1" number="1">
				<syllabic>single</syllabic>
				<text>废</text>
			</lyric>
		</note>
		<note>
			<rest />
			<duration>5040</duration>
			<type>eighth</type>
			<lyric name="1" number="1">
				<syllabic>single</syllabic>
				<text>#</text>
			</lyric>
		</note>
    </measure>
    <!--========================= Measure 6 ==========================-->
    <measure number="6">
		<note>
			<rest />
			<duration>10080</duration>
			<type>quarter</type>
			<lyric name="1" number="1">
				<syllabic>single</syllabic>
				<text>#</text>
			</lyric>
		</note>
		<note>
			<pitch>
				<step>A</step>
				<alter>0</alter>
				<octave>4</octave>
			</pitch>
			<duration>5040</duration>
			<type>eighth</type>
			<lyric name="1" number="1">
				<syllabic>single</syllabic>
				<text>现</text>
			</lyric>
		</note>
		<note>
			<pitch>
				<step>A</step>
				<alter>0</alter>
				<octave>4</octave>
			</pitch>
			<duration>5040</duration>
			<type>eighth</type>
			<lyric name="1" number="1">
				<syllabic>single</syllabic>
				<text>在</text>
			</lyric>
		</note>
		<note>
			<pitch>
				<step>E</step>
				<alter>0</alter>
				<octave>5</octave>
			</pitch>
			<duration>5040</duration>
			<type>eighth</type>
			<lyric name="1" number="1">
				<syllabic>single</syllabic>
				<text>你</text>
			</lyric>
		</note>
		<note>
			<pitch>
				<step>D</step>
				<alter>0</alter>
				<octave>5</octave>
			</pitch>
			<duration>5040</duration>
			<type>eighth</type>
			<lyric name="1" number="1">
				<syllabic>single</syllabic>
				<text>在</text>
			</lyric>
		</note>
		<note>
			<pitch>
				<step>D</step>
				<alter>0</alter>
				<octave>5</octave>
			</pitch>
			<duration>2520</duration>
			<type>16th</type>
			<lyric name="1" number="1">
				<syllabic>single</syllabic>
				<text>我</text>
			</lyric>
		</note>
		<note>
			<pitch>
				<step>C</step>
				<alter>0</alter>
				<octave>5</octave>
			</pitch>
			<duration>7560</duration>
			<type>16th</type>
			<lyric name="1" number="1">
				<syllabic>single</syllabic>
				<text>眼</text>
			</lyric>
		</note>
    </measure>
	  <!--========================= Measure 7 ==========================-->
	  <measure number="7">
		  <note>
			  <pitch>
				  <step>C</step>
				  <alter>0</alter>
				  <octave>5</octave>
			  </pitch>
			  <duration>15120</duration>
			  <type>quarter</type>
			  <lyric name="1" number="1">
				  <syllabic>single</syllabic>
				  <text>前</text>
			  </lyric>
		  </note>
		  <note>
			  <pitch>
				  <step>C</step>
				  <alter>0</alter>
				  <octave>5</octave>
			  </pitch>
			  <duration>2520</duration>
			  <type>16th</type>
			  <lyric name="1" number="1">
				  <syllabic>single</syllabic>
				  <text>我</text>
			  </lyric>
		  </note>
		  <note>
			  <pitch>
				  <step>D</step>
				  <alter>0</alter>
				  <octave>5</octave>
			  </pitch>
			  <duration>2520</duration>
			  <type>16th</type>
			  <lyric name="1" number="1">
				  <syllabic>single</syllabic>
				  <text>想</text>
			  </lyric>
		  </note>
		  <note>
			  <pitch>
				  <step>C</step>
				  <alter>0</alter>
				  <octave>5</octave>
			  </pitch>
			  <duration>15120</duration>
			  <type>quarter</type>
			  <lyric name="1" number="1">
				  <syllabic>single</syllabic>
				  <text>爱</text>
			  </lyric>
		  </note>
		  <note>
			  <pitch>
				  <step>E</step>
				  <alter>0</alter>
				  <octave>4</octave>
			  </pitch>
			  <duration>2520</duration>
			  <type>16th</type>
			  <lyric name="1" number="1">
				  <syllabic>single</syllabic>
				  <text>请</text>
			  </lyric>
		  </note>
		  <note>
			  <pitch>
				  <step>E</step>
				  <alter>0</alter>
				  <octave>4</octave>
			  </pitch>
			  <duration>2520</duration>
			  <type>16th</type>
			  <lyric name="1" number="1">
				  <syllabic>single</syllabic>
				  <text>给</text>
			  </lyric>
		  </note>
	  </measure>
	  <!--========================= Measure 8 ==========================-->
	  <measure number="8">
		  <note>
			  <pitch>
				  <step>A</step>
				  <alter>0</alter>
				  <octave>4</octave>
			  </pitch>
			  <duration>7560</duration>
			  <type>eighth</type>
			  <lyric name="1" number="1">
				  <syllabic>single</syllabic>
				  <text>我</text>
			  </lyric>
		  </note>
		  <note>
			  <pitch>
				  <step>G</step>
				  <alter>0</alter>
				  <octave>4</octave>
			  </pitch>
			  <duration>2520</duration>
			  <type>16th</type>
			  <lyric name="1" number="1">
				  <syllabic>single</syllabic>
				  <text>机</text>
			  </lyric>
		  </note>
		  <note>
			  <pitch>
				  <step>G</step>
				  <alter>0</alter>
				  <octave>4</octave>
			  </pitch>
			  <duration>30240</duration>
			  <type>half</type>
			  <lyric name="1" number="1">
				  <syllabic>single</syllabic>
				  <text>会</text>
			  </lyric>
		  </note>
	  </measure>
	  <!--========================= Measure 9 ==========================-->
	  <measure number="9">
		  <note>
			  <rest />
			  <duration>10080</duration>
			  <type>quarter</type>
			  <lyric name="1" number="1">
				  <syllabic>single</syllabic>
				  <text>#</text>
			  </lyric>
		  </note>
		  <note>
			  <pitch>
				  <step>C</step>
				  <alter>0</alter>
				  <octave>5</octave>
			  </pitch>
			  <duration>2520</duration>
			  <type>16th</type>
			  <lyric name="1" number="1">
				  <syllabic>single</syllabic>
				  <text>如</text>
			  </lyric>
		  </note>
		  <note>
			  <pitch>
				  <step>C</step>
				  <alter>0</alter>
				  <octave>5</octave>
			  </pitch>
			  <duration>2520</duration>
			  <type>16th</type>
			  <lyric name="1" number="1">
				  <syllabic>single</syllabic>
				  <text>果</text>
			  </lyric>
		  </note>
		  <note>
			  <pitch>
				  <step>C</step>
				  <alter>0</alter>
				  <octave>5</octave>
			  </pitch>
			  <duration>5040</duration>
			  <type>eighth</type>
			  <lyric name="1" number="1">
				  <syllabic>single</syllabic>
				  <text>我</text>
			  </lyric>
		  </note>
		  <note>
			  <pitch>
				  <step>C</step>
				  <alter>0</alter>
				  <octave>5</octave>
			  </pitch>
			  <duration>7560</duration>
			  <type>eighth</type>
			  <lyric name="1" number="1">
				  <syllabic>single</syllabic>
				  <text>错</text>
			  </lyric>
		  </note>
		  <note>
			  <pitch>
				  <step>D</step>
				  <alter>0</alter>
				  <octave>5</octave>
			  </pitch>
			  <duration>2520</duration>
			  <type>16th</type>
			  <lyric name="1" number="1">
				  <syllabic>single</syllabic>
				  <text>了</text>
			  </lyric>
		  </note>
		  <note>
			  <pitch>
				  <step>E</step>
				  <alter>0</alter>
				  <octave>5</octave>
			  </pitch>
			  <duration>7560</duration>
			  <type>eighth</type>
			  <lyric name="1" number="1">
				  <syllabic>single</syllabic>
				  <text>也</text>
			  </lyric>
		  </note>
		  <note>
			  <pitch>
				  <step>C</step>
				  <alter>0</alter>
				  <octave>5</octave>
			  </pitch>
			  <duration>2520</duration>
			  <type>16th</type>
			  <lyric name="1" number="1">
				  <syllabic>single</syllabic>
				  <text>承</text>
			  </lyric>
		  </note>
	  </measure>
	  <!--========================= Measure 10 ==========================-->
	  <measure number="10">
		  <note>
			  <pitch>
				  <step>E</step>
				  <alter>0</alter>
				  <octave>5</octave>
			  </pitch>
			  <duration>15120</duration>
			  <type>quarter</type>
			  <lyric name="1" number="1">
				  <syllabic>single</syllabic>
				  <text>担</text>
			  </lyric>
		  </note>
		  <note>
			  <pitch>
				  <step>E</step>
				  <alter>0</alter>
				  <octave>5</octave>
			  </pitch>
			  <duration>2520</duration>
			  <type>16th</type>
			  <lyric name="1" number="1">
				  <syllabic>single</syllabic>
				  <text>认</text>
			  </lyric>
		  </note>
		  <note>
			  <pitch>
				  <step>E</step>
				  <alter>0</alter>
				  <octave>5</octave>
			  </pitch>
			  <duration>2520</duration>
			  <type>16th</type>
			  <lyric name="1" number="1">
				  <syllabic>single</syllabic>
				  <text>定</text>
			  </lyric>
		  </note>
		  <note>
			  <pitch>
				  <step>D</step>
				  <alter>0</alter>
				  <octave>5</octave>
			  </pitch>
			  <duration>2520</duration>
			  <type>16th</type>
			  <lyric name="1" number="1">
				  <syllabic>single</syllabic>
				  <text>你</text>
			  </lyric>
		  </note>
		  <note>
			  <pitch>
				  <step>G</step>
				  <alter>0</alter>
				  <octave>5</octave>
			  </pitch>
			  <duration>7560</duration>
			  <type>eighth</type>
			  <lyric name="1" number="1">
				  <syllabic>single</syllabic>
				  <text>就</text>
			  </lyric>
		  </note>
		  <note>
			  <pitch>
				  <step>G</step>
				  <alter>0</alter>
				  <octave>5</octave>
			  </pitch>
			  <duration>5040</duration>
			  <type>eighth</type>
			  <lyric name="1" number="1">
				  <syllabic>single</syllabic>
				  <text>是</text>
			  </lyric>
		  </note>
		  <note>
			  <pitch>
				  <step>B</step>
				  <alter>0</alter>
				  <octave>4</octave>
			  </pitch>
			  <duration>5040</duration>
			  <type>eighth</type>
			  <lyric name="1" number="1">
				  <syllabic>single</syllabic>
				  <text>答</text>
			  </lyric>
		  </note>
	  </measure>
	  <!--========================= Measure 11 ==========================-->
	  <measure number="11">
		  <note>
			  <pitch>
				  <step>C</step>
				  <alter>0</alter>
				  <octave>5</octave>
			  </pitch>
			  <duration>30240</duration>
			  <type>half</type>
			  <lyric name="1" number="1">
				  <syllabic>single</syllabic>
				  <text>案</text>
			  </lyric>
		  </note>
		  <note>
			  <pitch>
				  <step>E</step>
				  <alter>0</alter>
				  <octave>5</octave>
			  </pitch>
			  <duration>2520</duration>
			  <type>16th</type>
			  <lyric name="1" number="1">
				  <syllabic>single</syllabic>
				  <text>我</text>
			  </lyric>
		  </note>
		  <note>
			  <pitch>
				  <step>F</step>
				  <alter>0</alter>
				  <octave>5</octave>
			  </pitch>
			  <duration>2520</duration>
			  <type>16th</type>
			  <lyric name="1" number="1">
				  <syllabic>single</syllabic>
				  <text>不</text>
			  </lyric>
		  </note>
		  <note>
			  <pitch>
				  <step>E</step>
				  <alter>0</alter>
				  <octave>5</octave>
			  </pitch>
			  <duration>2520</duration>
			  <type>16th</type>
			  <lyric name="1" number="1">
				  <syllabic>single</syllabic>
				  <text>怕</text>
			  </lyric>
		  </note>
		  <note>
			  <pitch>
				  <step>F</step>
				  <alter>0</alter>
				  <octave>5</octave>
			  </pitch>
			  <duration>2520</duration>
			  <type>16th</type>
			  <lyric name="1" number="1">
				  <syllabic>single</syllabic>
				  <text>谁</text>
			  </lyric>
		  </note>
	  </measure>
	  <!--========================= Measure 12 ==========================-->
	  <measure number="12">
		  <note>
			  <pitch>
				  <step>E</step>
				  <alter>0</alter>
				  <octave>5</octave>
			  </pitch>
			  <duration>7560</duration>
			  <type>eighth</type>
			  <lyric name="1" number="1">
				  <syllabic>single</syllabic>
				  <text>嘲</text>
			  </lyric>
		  </note>
		  <note>
			  <pitch>
				  <step>C</step>
				  <alter>0</alter>
				  <octave>5</octave>
			  </pitch>
			  <duration>2520</duration>
			  <type>16th</type>
			  <lyric name="1" number="1">
				  <syllabic>single</syllabic>
				  <text>笑</text>
			  </lyric>
		  </note>
		  <note>
			  <pitch>
				  <step>C</step>
				  <alter>0</alter>
				  <octave>5</octave>
			  </pitch>
			  <duration>7560</duration>
			  <type>16th</type>
			  <lyric name="1" number="1">
				  <syllabic>single</syllabic>
				  <text>我</text>
			  </lyric>
		  </note>
		  <note>
			  <pitch>
				  <step>A</step>
				  <alter>0</alter>
				  <octave>4</octave>
			  </pitch>
			  <duration>2520</duration>
			  <type>16th</type>
			  <lyric name="1" number="1">
				  <syllabic>single</syllabic>
				  <text>极</text>
			  </lyric>
		  </note>
		  <note>
			  <pitch>
				  <step>C</step>
				  <alter>0</alter>
				  <octave>5</octave>
			  </pitch>
			  <duration>20160</duration>
			  <type>half</type>
			  <lyric name="1" number="1">
				  <syllabic>single</syllabic>
				  <text>端</text>
			  </lyric>
		  </note>
	  </measure>
	  <!--========================= Measure 13 ==========================-->
	  <measure number="13">
		  <note>
			  <rest />
			  <duration>40320</duration>
			  <type>whole</type>
			  <lyric name="1" number="1">
				  <syllabic>single</syllabic>
				  <text>#</text>
			  </lyric>
		  </note>
		  <barline location="right">
			  <bar-style>light-heavy</bar-style>
		  </barline>
	  </measure>
  </part>
</score-partwise>